<?xml version="1.0" encoding="UTF-8" standalone="no"?>
<svg
   xmlns:dc="http://purl.org/dc/elements/1.1/"
   xmlns:cc="http://creativecommons.org/ns#"
   xmlns:rdf="http://www.w3.org/1999/02/22-rdf-syntax-ns#"
   xmlns:svg="http://www.w3.org/2000/svg"
   xmlns="http://www.w3.org/2000/svg"
   xmlns:sodipodi="http://sodipodi.sourceforge.net/DTD/sodipodi-0.dtd"
   xmlns:inkscape="http://www.inkscape.org/namespaces/inkscape"
   height="32"
   width="32"
   version="1.1"
   id="svg8"
   sodipodi:docname="app.svg"
   inkscape:version="0.92.0 r">
  <metadata
     id="metadata14">
    <rdf:RDF>
      <cc:Work
         rdf:about="">
        <dc:format>image/svg+xml</dc:format>
        <dc:type
           rdf:resource="http://purl.org/dc/dcmitype/StillImage" />
        <dc:title></dc:title>
      </cc:Work>
    </rdf:RDF>
  </metadata>
  <defs
     id="defs12" />
  <sodipodi:namedview
     pagecolor="#ffffff"
     bordercolor="#666666"
     borderopacity="1"
     objecttolerance="10"
     gridtolerance="10"
     guidetolerance="10"
     inkscape:pageopacity="0"
     inkscape:pageshadow="2"
     inkscape:window-width="1680"
     inkscape:window-height="986"
     id="namedview10"
     showgrid="false"
     inkscape:zoom="12.0625"
     inkscape:cx="11.271736"
     inkscape:cy="20.8604"
     inkscape:window-x="0"
     inkscape:window-y="30"
     inkscape:window-maximized="1"
     inkscape:current-layer="svg8">
    <inkscape:grid
       type="xygrid"
       id="grid4527" />
  </sodipodi:namedview>
  <g
     id="g4593"
     transform="translate(0,1.8238342)">
    <path
       inkscape:connector-curvature="0"
       id="path4491"
       d="m 16.155926,7.4577902 a 4.2086267,4.2086267 0 0 0 -0.376953,0.019531 4.2086267,4.2086267 0 0 0 -0.146485,0.017578 4.2086267,4.2086267 0 0 0 -0.263671,0.039063 4.2086267,4.2086267 0 0 0 -0.201172,0.046875 4.2086267,4.2086267 0 0 0 -0.181641,0.044922 4.2086267,4.2086267 0 0 0 -0.251953,0.083984 4.2086267,4.2086267 0 0 0 -0.146484,0.054687 4.2086267,4.2086267 0 0 0 -0.220703,0.097656 4.2086267,4.2086267 0 0 0 -0.173829,0.083984 4.2086267,4.2086267 0 0 0 -0.1875,0.1074219 4.2086267,4.2086267 0 0 0 -0.167968,0.1035156 4.2086267,4.2086267 0 0 0 -0.177735,0.125 4.2086267,4.2086267 0 0 0 -0.177734,0.1386718 4.2086267,4.2086267 0 0 0 -0.123047,0.1054688 4.2086267,4.2086267 0 0 0 -0.177734,0.1660156 4.2086267,4.2086267 0 0 0 -0.166016,0.1777344 4.2086267,4.2086267 0 0 0 -0.105469,0.1230469 4.2086267,4.2086267 0 0 0 -0.138672,0.1777343 4.2086267,4.2086267 0 0 0 -0.125,0.1777344 4.2086267,4.2086267 0 0 0 -0.103515,0.1679688 4.2086267,4.2086267 0 0 0 -0.107422,0.1875 4.2086267,4.2086267 0 0 0 -0.08399,0.1738281 4.2086267,4.2086267 0 0 0 -0.09766,0.2207042 4.2086267,4.2086267 0 0 0 -0.05469,0.146484 4.2086267,4.2086267 0 0 0 -0.08399,0.251953 4.2086267,4.2086267 0 0 0 -0.04492,0.181641 4.2086267,4.2086267 0 0 0 -0.04687,0.201172 4.2086267,4.2086267 0 0 0 -0.03906,0.263671 4.2086267,4.2086267 0 0 0 -0.01758,0.146485 4.2086267,4.2086267 0 0 0 -0.01953,0.376953 4.2086267,4.2086267 0 0 0 0.01953,0.376953 4.2086267,4.2086267 0 0 0 0.01758,0.146485 4.2086267,4.2086267 0 0 0 0.03906,0.263671 4.2086267,4.2086267 0 0 0 0.04687,0.201172 4.2086267,4.2086267 0 0 0 0.04492,0.181641 4.2086267,4.2086267 0 0 0 0.08399,0.251953 4.2086267,4.2086267 0 0 0 0.05469,0.146484 4.2086267,4.2086267 0 0 0 0.09766,0.220703 4.2086267,4.2086267 0 0 0 0.08399,0.173829 4.2086267,4.2086267 0 0 0 0.09766,0.169921 4.2086267,4.2086267 0 0 0 0.125,0.203126 4.2086267,4.2086267 0 0 0 0.09375,0.132812 4.2086267,4.2086267 0 0 0 0.158203,0.207031 4.2086267,4.2086267 0 0 0 0.09766,0.111328 4.2086267,4.2086267 0 0 0 0.185547,0.199219 4.2086267,4.2086267 0 0 0 0.13086,0.121094 4.2086267,4.2086267 0 0 0 0.173828,0.15039 4.2086267,4.2086267 0 0 0 0.136719,0.105469 4.2086267,4.2086267 0 0 0 0.216796,0.154297 4.2086267,4.2086267 0 0 0 0.125,0.07617 4.2086267,4.2086267 0 0 0 0.230469,0.132812 4.2086267,4.2086267 0 0 0 1.949219,0.482422 4.2086267,4.2086267 0 0 0 1.810547,-0.414062 4.2086267,4.2086267 0 0 0 0.01367,-0.0078 4.2086267,4.2086267 0 0 0 0.296875,-0.158203 4.2086267,4.2086267 0 0 0 0.08008,-0.04687 4.2086267,4.2086267 0 0 0 0.294922,-0.201172 4.2086267,4.2086267 0 0 0 0.0332,-0.02148 4.2086267,4.2086267 0 0 0 0.0098,-0.0078 4.2086267,4.2086267 0 0 0 0.308594,-0.259765 4.2086267,4.2086267 0 0 0 0.0039,-0.002 4.2086267,4.2086267 0 0 0 0.261719,-0.267578 4.2086267,4.2086267 0 0 0 0.0332,-0.0332 4.2086267,4.2086267 0 0 0 0.01172,-0.01562 4.2086267,4.2086267 0 0 0 0.212891,-0.263672 4.2086267,4.2086267 0 0 0 0.04883,-0.06445 4.2086267,4.2086267 0 0 0 0.185547,-0.285156 4.2086267,4.2086267 0 0 0 0.04492,-0.07422 4.2086267,4.2086267 0 0 0 0.128906,-0.25 4.2086267,4.2086267 0 0 0 0.06836,-0.138672 4.2086267,4.2086267 0 0 0 0.09375,-0.238282 4.2086267,4.2086267 0 0 0 0.05469,-0.152343 4.2086267,4.2086267 0 0 0 0.07813,-0.277344 4.2086267,4.2086267 0 0 0 0.03125,-0.123047 4.2086267,4.2086267 0 0 0 0.04492,-0.25 4.2086267,4.2086267 0 0 0 0.02734,-0.183594 4.2086267,4.2086267 0 0 0 0.01758,-0.224609 4.2086267,4.2086267 0 0 0 0.01172,-0.248047 4.2086267,4.2086267 0 0 0 -0.01953,-0.373047 4.2086267,4.2086267 0 0 0 -0.01953,-0.160156 4.2086267,4.2086267 0 0 0 -0.03711,-0.251953 4.2086267,4.2086267 0 0 0 -0.03906,-0.173828 4.2086267,4.2086267 0 0 0 -0.05859,-0.228516 4.2086267,4.2086267 0 0 0 -0.06445,-0.195312 A 4.2086267,4.2086267 0 0 0 20.05241,10.084744 4.2086267,4.2086267 0 0 0 19.972332,9.907009 4.2086267,4.2086267 0 0 0 19.868817,9.6941184 4.2086267,4.2086267 0 0 0 19.780926,9.5398215 4.2086267,4.2086267 0 0 0 19.659832,9.3425558 4.2086267,4.2086267 0 0 0 19.546551,9.1823996 4.2086267,4.2086267 0 0 0 19.400067,8.9909934 4.2086267,4.2086267 0 0 0 19.298504,8.875759 4.2086267,4.2086267 0 0 0 19.128582,8.6902121 4.2086267,4.2086267 0 0 0 18.974285,8.547634 a 4.2086267,4.2086267 0 0 0 -0.15625,-0.1367188 4.2086267,4.2086267 0 0 0 -0.164062,-0.125 4.2086267,4.2086267 0 0 0 -0.177735,-0.1269531 4.2086267,4.2086267 0 0 0 -0.160156,-0.097656 4.2086267,4.2086267 0 0 0 -0.210937,-0.1210937 4.2086267,4.2086267 0 0 0 -0.136719,-0.066406 4.2086267,4.2086267 0 0 0 -0.255859,-0.1132812 4.2086267,4.2086267 0 0 0 -0.115235,-0.042969 4.2086267,4.2086267 0 0 0 -0.279297,-0.09375 4.2086267,4.2086267 0 0 0 -0.15625,-0.039062 4.2086267,4.2086267 0 0 0 -0.224609,-0.050781 4.2086267,4.2086267 0 0 0 -0.248047,-0.037109 4.2086267,4.2086267 0 0 0 -0.160156,-0.019531 4.2086267,4.2086267 0 0 0 -0.373047,-0.019531 z m 1.914062,8.2753908 A 4.5,4.5 0 0 1 16.155926,16.166775 4.5,4.5 0 0 1 14.337567,15.77615 L 9.9098324,26.821072 c -0.848202,2.158582 13.3746516,2.452902 12.4121096,0 z"
       style="opacity:1;fill:#ffffff;fill-opacity:1;stroke:none;stroke-width:4.12790871;stroke-linejoin:round;stroke-miterlimit:4;stroke-dasharray:none;stroke-opacity:1" />
    <path
       id="path4491-5"
       d="M 8.0859375,2.7246094 A 4.2086267,4.2086267 0 0 0 7.7089844,2.7441406 4.2086267,4.2086267 0 0 0 7.5625,2.7617188 4.2086267,4.2086267 0 0 0 7.2988281,2.8007812 4.2086267,4.2086267 0 0 0 7.0976562,2.8476562 4.2086267,4.2086267 0 0 0 6.9160156,2.8925781 4.2086267,4.2086267 0 0 0 6.6640625,2.9765625 4.2086267,4.2086267 0 0 0 6.5175781,3.03125 4.2086267,4.2086267 0 0 0 6.296875,3.1289062 4.2086267,4.2086267 0 0 0 6.1230469,3.2128906 4.2086267,4.2086267 0 0 0 5.9355469,3.3203125 4.2086267,4.2086267 0 0 0 5.7675781,3.4238281 4.2086267,4.2086267 0 0 0 5.5898438,3.5488281 4.2086267,4.2086267 0 0 0 5.4121094,3.6875 4.2086267,4.2086267 0 0 0 5.2890625,3.7929688 4.2086267,4.2086267 0 0 0 5.1113281,3.9589844 4.2086267,4.2086267 0 0 0 4.9453125,4.1367188 4.2086267,4.2086267 0 0 0 4.8398438,4.2597656 4.2086267,4.2086267 0 0 0 4.7011719,4.4375 4.2086267,4.2086267 0 0 0 4.5761719,4.6152344 4.2086267,4.2086267 0 0 0 4.4726562,4.7832031 4.2086267,4.2086267 0 0 0 4.3652344,4.9707031 4.2086267,4.2086267 0 0 0 4.28125,5.1445312 4.2086267,4.2086267 0 0 0 4.1835938,5.3652344 4.2086267,4.2086267 0 0 0 4.1289062,5.5117188 4.2086267,4.2086267 0 0 0 4.0449219,5.7636719 4.2086267,4.2086267 0 0 0 4,5.9453125 4.2086267,4.2086267 0 0 0 3.953125,6.1464844 4.2086267,4.2086267 0 0 0 3.9140625,6.4101562 4.2086267,4.2086267 0 0 0 3.8964844,6.5566406 4.2086267,4.2086267 0 0 0 3.8769531,6.9335938 4.2086267,4.2086267 0 0 0 3.8964844,7.3105469 4.2086267,4.2086267 0 0 0 3.9140625,7.4570312 4.2086267,4.2086267 0 0 0 3.953125,7.7207031 4.2086267,4.2086267 0 0 0 4,7.921875 4.2086267,4.2086267 0 0 0 4.044922,8.1035156 4.2086267,4.2086267 0 0 0 4.128906,8.3554688 4.2086267,4.2086267 0 0 0 4.183594,8.5019531 4.2086267,4.2086267 0 0 0 4.28125,8.7226562 4.2086267,4.2086267 0 0 0 4.365234,8.8964844 4.2086267,4.2086267 0 0 0 4.46289,9.0664062 a 4.2086267,4.2086267 0 0 0 0.125,0.203125 4.2086267,4.2086267 0 0 0 0.09375,0.1328126 4.2086267,4.2086267 0 0 0 0.1582032,0.2070312 4.2086267,4.2086267 0 0 0 0.097656,0.1113281 4.2086267,4.2086267 0 0 0 0.1855469,0.1992188 4.2086267,4.2086267 0 0 0 0.1308593,0.1210941 4.2086267,4.2086267 0 0 0 0.1738282,0.15039 4.2086267,4.2086267 0 0 0 0.1367187,0.105469 4.2086267,4.2086267 0 0 0 0.2167969,0.154297 4.2086267,4.2086267 0 0 0 0.125,0.07617 4.2086267,4.2086267 0 0 0 0.2304688,0.132812 4.2086267,4.2086267 0 0 0 1.9492187,0.482422 4.2086267,4.2086267 0 0 0 1.8105469,-0.414062 4.2086267,4.2086267 0 0 0 0.013672,-0.0078 4.2086267,4.2086267 0 0 0 0.2968744,-0.158203 4.2086267,4.2086267 0 0 0 0.08008,-0.04687 4.2086267,4.2086267 0 0 0 0.294922,-0.201172 4.2086267,4.2086267 0 0 0 0.0332,-0.02148 4.2086267,4.2086267 0 0 0 0.0098,-0.0078 4.2086267,4.2086267 0 0 0 0.308594,-0.259765 4.2086267,4.2086267 0 0 0 0.0039,-0.002 4.2086267,4.2086267 0 0 0 0.261719,-0.2675786 4.2086267,4.2086267 0 0 0 0.0332,-0.033203 4.2086267,4.2086267 0 0 0 0.01172,-0.015625 4.2086267,4.2086267 0 0 0 0.21289,-0.2636718 4.2086267,4.2086267 0 0 0 0.04883,-0.064453 4.2086267,4.2086267 0 0 0 0.185547,-0.2851562 4.2086267,4.2086267 0 0 0 0.04492,-0.074219 4.2086267,4.2086267 0 0 0 0.128906,-0.25 4.2086267,4.2086267 0 0 0 0.06836,-0.1386718 4.2086267,4.2086267 0 0 0 0.09375,-0.2382813 4.2086267,4.2086267 0 0 0 0.05469,-0.1523437 4.2086267,4.2086267 0 0 0 0.07813,-0.2773438 4.2086267,4.2086267 0 0 0 0.03125,-0.1230468 4.2086267,4.2086267 0 0 0 0.04492,-0.25 4.2086267,4.2086267 0 0 0 0.02731,-0.18358 4.2086267,4.2086267 0 0 0 0.01758,-0.2246094 4.2086267,4.2086267 0 0 0 0.01172,-0.2480468 A 4.2086267,4.2086267 0 0 0 12.273438,6.5605469 4.2086267,4.2086267 0 0 0 12.253906,6.4003906 4.2086267,4.2086267 0 0 0 12.216797,6.1484375 4.2086267,4.2086267 0 0 0 12.177734,5.9746094 4.2086267,4.2086267 0 0 0 12.119141,5.7460938 4.2086267,4.2086267 0 0 0 12.054688,5.5507812 4.2086267,4.2086267 0 0 0 11.982422,5.3515625 4.2086267,4.2086267 0 0 0 11.902344,5.1738281 4.2086267,4.2086267 0 0 0 11.798828,4.9609375 4.2086267,4.2086267 0 0 0 11.710938,4.8066406 4.2086267,4.2086267 0 0 0 11.589844,4.609375 4.2086267,4.2086267 0 0 0 11.476562,4.4492188 4.2086267,4.2086267 0 0 0 11.330078,4.2578125 4.2086267,4.2086267 0 0 0 11.228516,4.1425781 4.2086267,4.2086267 0 0 0 11.058594,3.9570312 4.2086267,4.2086267 0 0 0 10.904297,3.8144531 4.2086267,4.2086267 0 0 0 10.748047,3.6777344 4.2086267,4.2086267 0 0 0 10.583984,3.5527344 4.2086267,4.2086267 0 0 0 10.40625,3.4257812 4.2086267,4.2086267 0 0 0 10.246094,3.328125 4.2086267,4.2086267 0 0 0 10.035156,3.2070312 4.2086267,4.2086267 0 0 0 9.8984375,3.140625 4.2086267,4.2086267 0 0 0 9.6425781,3.0273438 4.2086267,4.2086267 0 0 0 9.5273438,2.984375 4.2086267,4.2086267 0 0 0 9.2480469,2.890625 4.2086267,4.2086267 0 0 0 9.0917969,2.8515625 4.2086267,4.2086267 0 0 0 8.8671875,2.8007812 4.2086267,4.2086267 0 0 0 8.6191406,2.7636719 4.2086267,4.2086267 0 0 0 8.4589844,2.7441406 4.2086267,4.2086267 0 0 0 8.0859375,2.7246094 Z M 10,11 A 4.5,4.5 0 0 1 8.0859375,11.433594 4.5,4.5 0 0 1 6.2675781,11.042969 L 1.8398438,22.087891 c -0.5404245,1.375321 5.0284382,1.98969 8.8984372,1.623047 L 12.851562,18.4375 Z"
       style="opacity:1;fill:#ffffff;fill-opacity:1;stroke:none;stroke-width:4.12790871;stroke-linejoin:round;stroke-miterlimit:4;stroke-dasharray:none;stroke-opacity:1"
       inkscape:connector-curvature="0" />
    <path
       id="path4491-5-3"
       d="M 23.818359,0.68164062 A 4.2086267,4.2086267 0 0 0 23.441406,0.70117188 4.2086267,4.2086267 0 0 0 23.294922,0.71875 4.2086267,4.2086267 0 0 0 23.03125,0.7578125 4.2086267,4.2086267 0 0 0 22.830078,0.8046875 4.2086267,4.2086267 0 0 0 22.648438,0.84960938 4.2086267,4.2086267 0 0 0 22.396484,0.93359375 4.2086267,4.2086267 0 0 0 22.25,0.98828125 4.2086267,4.2086267 0 0 0 22.029297,1.0859375 4.2086267,4.2086267 0 0 0 21.855469,1.1699219 4.2086267,4.2086267 0 0 0 21.667969,1.2773438 4.2086267,4.2086267 0 0 0 21.5,1.3808594 4.2086267,4.2086267 0 0 0 21.322266,1.5058594 4.2086267,4.2086267 0 0 0 21.144531,1.6445312 4.2086267,4.2086267 0 0 0 21.021484,1.75 4.2086267,4.2086267 0 0 0 20.84375,1.9160156 4.2086267,4.2086267 0 0 0 20.677734,2.09375 a 4.2086267,4.2086267 0 0 0 -0.105468,0.1230469 4.2086267,4.2086267 0 0 0 -0.138672,0.1777343 4.2086267,4.2086267 0 0 0 -0.125,0.1777344 4.2086267,4.2086267 0 0 0 -0.103516,0.1679688 4.2086267,4.2086267 0 0 0 -0.107422,0.1875 4.2086267,4.2086267 0 0 0 -0.08398,0.1738281 4.2086267,4.2086267 0 0 0 -0.09766,0.2207031 4.2086267,4.2086267 0 0 0 -0.05469,0.1464844 4.2086267,4.2086267 0 0 0 -0.08398,0.2519531 4.2086267,4.2086267 0 0 0 -0.04492,0.1816407 4.2086267,4.2086267 0 0 0 -0.04687,0.2011718 4.2086267,4.2086267 0 0 0 -0.03906,0.2636719 4.2086267,4.2086267 0 0 0 -0.01758,0.1464844 4.2086267,4.2086267 0 0 0 -0.01953,0.3769531 4.2086267,4.2086267 0 0 0 0.01953,0.3769531 4.2086267,4.2086267 0 0 0 0.01758,0.1464844 4.2086267,4.2086267 0 0 0 0.03906,0.2636719 4.2086267,4.2086267 0 0 0 0.04687,0.2011718 4.2086267,4.2086267 0 0 0 0.04492,0.1816407 4.2086267,4.2086267 0 0 0 0.08398,0.2519531 4.2086267,4.2086267 0 0 0 0.05469,0.1464844 4.2086267,4.2086267 0 0 0 0.09766,0.2207031 4.2086267,4.2086267 0 0 0 0.08398,0.1738281 4.2086267,4.2086267 0 0 0 0.09766,0.1699219 4.2086267,4.2086267 0 0 0 0.125,0.203125 4.2086267,4.2086267 0 0 0 0.09375,0.1328125 4.2086267,4.2086267 0 0 0 0.158204,0.2070312 4.2086267,4.2086267 0 0 0 0.09766,0.1113282 4.2086267,4.2086267 0 0 0 0.185547,0.1992187 4.2086267,4.2086267 0 0 0 0.130859,0.1210938 4.2086267,4.2086267 0 0 0 0.173828,0.1503906 4.2086267,4.2086267 0 0 0 0.136719,0.1054687 4.2086267,4.2086267 0 0 0 0.216797,0.1542969 4.2086267,4.2086267 0 0 0 0.125,0.076172 4.2086267,4.2086267 0 0 0 0.230469,0.1328125 4.2086267,4.2086267 0 0 0 1.949218,0.4824219 4.2086267,4.2086267 0 0 0 1.810547,-0.4140625 4.2086267,4.2086267 0 0 0 0.01367,-0.00781 4.2086267,4.2086267 0 0 0 0.296875,-0.1582032 4.2086267,4.2086267 0 0 0 0.08008,-0.046875 4.2086267,4.2086267 0 0 0 0.294922,-0.2011718 4.2086267,4.2086267 0 0 0 0.0332,-0.021484 4.2086267,4.2086267 0 0 0 0.0098,-0.00781 4.2086267,4.2086267 0 0 0 0.308594,-0.2597656 4.2086267,4.2086267 0 0 0 0.0039,-0.00195 4.2086267,4.2086267 0 0 0 0.261719,-0.2675782 4.2086267,4.2086267 0 0 0 0.0332,-0.033203 4.2086267,4.2086267 0 0 0 0.01172,-0.015625 4.2086267,4.2086267 0 0 0 0.212891,-0.2636719 4.2086267,4.2086267 0 0 0 0.04883,-0.064453 4.2086267,4.2086267 0 0 0 0.185547,-0.2851563 4.2086267,4.2086267 0 0 0 0.04492,-0.074219 4.2086267,4.2086267 0 0 0 0.128906,-0.25 4.2086267,4.2086267 0 0 0 0.06836,-0.1386719 4.2086267,4.2086267 0 0 0 0.09375,-0.2382812 4.2086267,4.2086267 0 0 0 0.05469,-0.1523438 4.2086267,4.2086267 0 0 0 0.07813,-0.2773437 4.2086267,4.2086267 0 0 0 0.03125,-0.1230469 4.2086267,4.2086267 0 0 0 0.04492,-0.25 4.2086267,4.2086267 0 0 0 0.02734,-0.1835938 4.2086267,4.2086267 0 0 0 0.01758,-0.2246093 A 4.2086267,4.2086267 0 0 0 28.025391,4.890625 4.2086267,4.2086267 0 0 0 28.005859,4.5175781 4.2086267,4.2086267 0 0 0 27.986328,4.3574219 4.2086267,4.2086267 0 0 0 27.949219,4.1054688 4.2086267,4.2086267 0 0 0 27.910156,3.9316406 4.2086267,4.2086267 0 0 0 27.851562,3.703125 4.2086267,4.2086267 0 0 0 27.787109,3.5078125 4.2086267,4.2086267 0 0 0 27.714844,3.3085938 4.2086267,4.2086267 0 0 0 27.634766,3.1308594 4.2086267,4.2086267 0 0 0 27.53125,2.9179688 4.2086267,4.2086267 0 0 0 27.443359,2.7636719 4.2086267,4.2086267 0 0 0 27.322266,2.5664062 4.2086267,4.2086267 0 0 0 27.208984,2.40625 4.2086267,4.2086267 0 0 0 27.0625,2.2148438 4.2086267,4.2086267 0 0 0 26.960938,2.0996094 4.2086267,4.2086267 0 0 0 26.791016,1.9140625 4.2086267,4.2086267 0 0 0 26.636719,1.7714844 4.2086267,4.2086267 0 0 0 26.480469,1.6347656 4.2086267,4.2086267 0 0 0 26.316406,1.5097656 4.2086267,4.2086267 0 0 0 26.138672,1.3828125 4.2086267,4.2086267 0 0 0 25.978516,1.2851562 4.2086267,4.2086267 0 0 0 25.767578,1.1640625 4.2086267,4.2086267 0 0 0 25.630859,1.0976562 4.2086267,4.2086267 0 0 0 25.375,0.984375 4.2086267,4.2086267 0 0 0 25.259766,0.9414063 4.2086267,4.2086267 0 0 0 24.980469,0.8476563 4.2086267,4.2086267 0 0 0 24.824219,0.8085938 4.2086267,4.2086267 0 0 0 24.599609,0.7578125 4.2086267,4.2086267 0 0 0 24.351562,0.7207031 4.2086267,4.2086267 0 0 0 24.191406,0.7011719 4.2086267,4.2086267 0 0 0 23.818359,0.68164062 Z M 25.732422,8.9570312 A 4.5,4.5 0 0 1 23.818359,9.390625 4.5,4.5 0 0 1 22,9 l -3.126953,7.802734 1.820312,4.748047 c 3.89372,0.534039 9.929824,0.122052 9.291016,-1.505859 z"
       style="opacity:1;fill:#ffffff;fill-opacity:1;stroke:none;stroke-width:4.12790871;stroke-linejoin:round;stroke-miterlimit:4;stroke-dasharray:none;stroke-opacity:1"
       inkscape:connector-curvature="0" />
  </g>
</svg>
